<svg xmlns="http://www.w3.org/2000/svg" height="1200" width="1600" version="1.1" xmlns:xlink="http://www.w3.org/1999/xlink" xmlns:svgjs="http://svgjs.com/svgjs"><rect fill="#f3eee9" width="1600" height="1200"></rect><g><path d="M1071.45 1006.79H1431.45C1431.8 1006.79 1432.14 1006.53 1432.14 1006.1V1000.8C1432.14 991.13 1424.27 983.25 1414.6 983.25L1406.47 983.17 1122.88 979.66 1121.77 977.18C1119.46 978.03 1116.89 978.89 1114.15 979.92 1093.45 987.45 1064.61 999 1070.26 1006.19 1070.51 1006.61 1071.03 1006.79 1071.45 1006.79Z" fill="#ff925c" opacity="1" stroke-width="4" stroke="#000000"></path><path d="M1102.09 1006.79H1394.66C1405.27 997.8 1406.47 983.17 1406.47 983.17L1122.88 979.74 1121.77 977.26C1119.37 978.12 1116.55 978.97 1114.15 979.92 1115.61 998.57 1102.09 1006.79 1102.09 1006.79Z" fill="#ff925c00" opacity="0" stroke-width="4" stroke="#ffffff00"></path><path d="M1421.79 999.6V1005.93" stroke="#000000" stroke-width="4" stroke-linecap="round" stroke-linejoin="round" opacity="1" fill="none"></path><path d="M1413.83 999.6V1005.93" stroke="#000000" stroke-width="4" stroke-linecap="round" stroke-linejoin="round" opacity="1" fill="none"></path><path d="M1291.63 1006.79L1357.35 1006.79C1390.55 1006.79 1398.17 996.77 1401.25 978.97 1401.25 978.97 1401.25 978.97 1401.25 978.89 1402.12 968.89 1403.1 968.64 1388.93 960.95 1378.74 956.21 1365.82 952.53 1363.25 951.85 1362.91 951.76 1362.66 951.59 1362.57 951.25 1358.29 943.21 1344.94 911.03 1318.93 911.03L1317.13 911.03C1317.05 911.03 1317.05 911.03 1317.05 911.12 1316.53 916.68 1310.29 961.6 1306.43 978.97 1303.52 992.32 1296.42 1005.67 1291.63 1006.79Z" fill="#ff925c" opacity="1" stroke-width="4" stroke="#000000"></path><path d="M1330.82 983.25H1304.38L1287.78 1006.79H1348.36V1000.8C1348.28 991.13 1340.49 983.25 1330.82 983.25Z" fill="#ff925c" opacity="1" stroke-width="4" stroke="#000000"></path><path d="M1123.4 1006.79H1254.83C1244.57 1003.88 1244.31 988.13 1248.67 977.26 1251.15 971.02 1262.54 950.74 1272.72 932.68 1270.92 931.57 1235.84 909.66 1200.75 902.73 1200.75 902.73 1200.75 902.73 1200.67 902.73L1157.28 921.04 1122.37 939.87C1122.37 939.87 1122.37 939.87 1122.37 939.95 1114.92 959.04 1116.29 982.65 1123.4 1006.79Z" fill="#ff925c" opacity="1" stroke-width="4" stroke="#000000"></path><path d="M1200.75 902.82C1200.75 902.73 1200.75 902.73 1200.75 902.82 1185.78 899.73 1170.89 899.48 1158.57 904.61 1139.91 912.31 1128.44 924.72 1122.45 939.78V939.87C1128.27 947.06 1147.87 953.56 1155.06 936.96 1155.14 936.7 1155.4 936.62 1155.66 936.7 1170.38 943.98 1203.66 936.27 1200.75 902.82Z" fill="#ecddfe" opacity="1" stroke-width="4" stroke="#000000"></path><path d="M1401.16 978.97C1401.25 978.97 1401.25 978.97 1401.25 978.89 1401.68 976.49 1401.85 974.18 1401.85 971.7 1401.85 968.02 1396.03 964.17 1388.84 960.92L1388.84 960.92C1387.13 961.77 1385.76 963.23 1385.16 965.03 1383.53 969.82 1387.81 975.64 1394.74 978.03 1396.88 978.63 1398.94 978.97 1401.16 978.97Z" fill="#ecddfe" opacity="1" stroke-width="4" stroke="#000000"></path><path d="M1304.47 983.34H1330.91C1340.58 983.34 1348.45 991.21 1348.45 1000.88V1005.93" stroke="#000000" stroke-width="4" stroke-linecap="round" stroke-linejoin="round" opacity="1" fill="none"></path><path d="M1342.12 987.36C1345.97 990.61 1348.45 995.4 1348.45 1000.88V1006.79H1357.35V1004.73C1357.44 995.83 1350.76 988.47 1342.12 987.36Z" fill="#ff925c00" opacity="0" stroke-width="4" stroke="#ffffff00"></path><path d="M1338.01 999.6V1005.93" stroke="#000000" stroke-width="4" stroke-linecap="round" stroke-linejoin="round" opacity="1" fill="none"></path><path d="M1330.05 999.6V1005.93" stroke="#000000" stroke-width="4" stroke-linecap="round" stroke-linejoin="round" opacity="1" fill="none"></path><path d="M1220.78 999.6V1005.93" stroke="#000000" stroke-width="4" stroke-linecap="round" stroke-linejoin="round" opacity="1" fill="none"></path><path d="M1212.82 999.6V1005.93" stroke="#000000" stroke-width="4" stroke-linecap="round" stroke-linejoin="round" opacity="1" fill="none"></path><path d="M1205.63 982.83C1220.01 971.7 1223.17 947.74 1221.55 939.78" stroke="#000000" stroke-width="4" stroke-linecap="round" stroke-linejoin="round" opacity="1" fill="none"></path><path d="M1185.35 983.34H1214.44C1224.11 983.34 1231.99 991.21 1231.99 1000.88V1005.93" stroke="#000000" stroke-width="4" stroke-linecap="round" stroke-linejoin="round" opacity="1" fill="none"></path><path d="M1221.72 955.19C1221.46 954.76 1220.86 954.84 1220.78 955.36 1218.89 964.6 1210.85 978.8 1206.14 982.48 1205.97 982.65 1206.06 982.91 1206.32 982.91H1213.85C1223.94 982.91 1232.16 991.13 1232.16 1001.22V1006.7C1232.16 1006.7 1261.94 1006.79 1275.37 1006.79 1243.8 994.12 1225.31 962.03 1221.72 955.19Z" fill="#ff925c00" opacity="0" stroke-width="4" stroke="#ffffff00"></path><path d="M1400.39 983.17C1397.83 994.55 1392.09 1006.79 1357.35 1006.79" stroke="#000000" stroke-width="4" stroke-linecap="round" stroke-linejoin="round" opacity="1" fill="none"></path><path d="M1123.4 1006.79C1120.91 998.4 1118.78 987.27 1117.83 978.55" stroke="#000000" stroke-width="4" stroke-linecap="round" stroke-linejoin="round" opacity="1" fill="none"></path><path d="M1325.26 960.49C1330.57 960.41 1335.7 958.44 1339.64 954.93" stroke="#000000" stroke-width="4" stroke-linecap="round" stroke-linejoin="round" opacity="1" fill="none"></path><path d="M1254.83 1006.79H1291.63C1296.51 1005.67 1305.66 1001.74 1308.57 988.47 1312.34 971.1 1316.45 916.85 1316.96 911.12 1316.96 911.03 1316.96 911.03 1316.87 911.03 1293.6 910.26 1282.05 922.58 1272.72 932.68 1272.72 932.68 1253.55 965.63 1248.59 977.26 1244.22 988.05 1244.57 1003.88 1254.83 1006.79Z" fill="#ecddfe" opacity="1" stroke-width="4" stroke="#000000"></path></g><g><path d="M1246.25 797.97L1291.77 1006.02" stroke="#000000" stroke-width="4" stroke-linecap="round" stroke-linejoin="round" opacity="1" fill="none"></path><path d="M1157.68 797.97L1112.15 1006.02" stroke="#000000" stroke-width="4" stroke-linecap="round" stroke-linejoin="round" opacity="1" fill="none"></path><path d="M1140.41 877.95H1263.52" stroke="#000000" stroke-width="4" stroke-linecap="round" stroke-linejoin="round" opacity="1" fill="none"></path><path d="M1134.87 771.37H1269.13C1277.64 771.37 1284.5 778.23 1284.5 786.74 1284.5 795.25 1277.64 802.11 1269.13 802.11H1134.87C1126.36 802.11 1119.51 795.25 1119.51 786.74 1119.42 778.23 1126.36 771.37 1134.87 771.37Z" fill="#ffdf61" opacity="1" stroke-width="4" stroke="#000000"></path><path d="M1282.85 779.96C1282.85 779.96 1265.75 792.94 1175.94 794.42 1134.21 795.17 1119.92 790.54 1119.92 790.54 1121.57 797.23 1127.6 802.19 1134.79 802.19H1269.05C1277.56 802.19 1284.42 795.33 1284.42 786.82 1284.42 784.26 1283.92 781.95 1282.85 779.96Z" fill="#ffdf6100" opacity="0" stroke-width="4" stroke="#ffffff00"></path></g><g><path d="M448.3 798.21L493.97 1006.94" stroke="#000000" stroke-width="4" stroke-linecap="round" stroke-linejoin="round" opacity="1" fill="none"></path><path d="M359.43 798.21L313.76 1006.94" stroke="#000000" stroke-width="4" stroke-linecap="round" stroke-linejoin="round" opacity="1" fill="none"></path><path d="M342.11 878.45H465.62" stroke="#000000" stroke-width="4" stroke-linecap="round" stroke-linejoin="round" opacity="1" fill="none"></path><path d="M336.55 771.52H471.26C479.79 771.52 486.67 778.4 486.67 786.94 486.67 795.48 479.79 802.36 471.26 802.36H336.55C328.01 802.36 321.13 795.48 321.13 786.94 321.05 778.4 328.01 771.52 336.55 771.52Z" fill="#ffdf61" opacity="1" stroke-width="4" stroke="#000000"></path><path d="M485.02 780.14C485.02 780.14 467.86 793.16 377.75 794.65 335.89 795.39 321.55 790.75 321.55 790.75 323.21 797.47 329.26 802.44 336.47 802.44H471.17C479.71 802.44 486.59 795.56 486.59 787.02 486.59 784.45 486.1 782.13 485.02 780.14Z" fill="#ffdf6100" opacity="0" stroke-width="4" stroke="#ffffff00"></path></g><g><path d="M448.35 561.32L502.72 535.99C502.82 535.99 502.82 535.99 502.82 536.1 515.75 564.81 518.93 573.19 519.25 574.03L519.35 574.14C522.74 573.4 635.29 548.71 668.67 547.65 679.37 547.33 681.81 556.55 673.44 562.7 673.33 562.7 673.33 562.8 673.44 562.91 678.52 565.24 687.21 571.07 680.11 582.41V582.51C680.64 583.25 686.15 591.63 676.51 600V600.1C676.93 600.95 680.75 610.91 669.09 617.69 669.09 617.69 668.98 617.8 669.09 617.8 669.3 618.54 670.36 624.48 660.82 629.88 659.77 630.52 658.71 631.05 657.65 631.36 649.7 634.33 645.99 628.82 648.74 622.67V622.57C648 622.25 643.76 620.03 646.09 614.2 646.09 614.09 646.09 613.99 645.99 614.09 578.8 637.83 495.19 664.75 441.78 606.04 441.78 606.04 441.78 606.04 441.78 605.93 442 604.24 448.14 563.01 448.35 561.32Z" fill="#cf5934" opacity="1" stroke-width="4" stroke="#000000"></path><path d="M673.54 562.7L663.26 564.71" stroke="#000000" stroke-width="4" stroke-linecap="round" stroke-linejoin="round" opacity="1" fill="none"></path><path d="M641.54 856.98C643.02 879.34 645.25 900 650.12 916.32 652.14 923.42 655.21 930.2 659.24 936.45 662.1 940.59 665.7 944.51 669.51 947.79 669.62 947.79 669.51 947.9 669.51 948.01 654.25 955.95 646.2 973.76 643.66 990.82 643.66 990.82 643.66 990.92 643.55 990.92H596.18C596.18 990.92 596.08 990.92 596.08 990.82 591.1 967.93 578.91 948.75 555.49 948.75 555.38 948.75 555.28 948.75 555.07 948.75 553.05 939.21 551.04 928.19 549.03 916.43 547.54 907.84 546.16 898.62 544.89 888.87 543.41 877.85 542.24 867.36 541.4 857.19 541.4 857.08 541.4 857.08 541.5 857.08H641.54V856.98Z" fill="#cf5934" opacity="1" stroke-width="4" stroke="#000000"></path><path d="M622.04 856.98L556.76 953.3C555.28 944.72 545.95 898.52 544.68 888.77 543.2 877.75 542.03 867.15 541.18 856.98H622.04Z" fill="#cf593400" opacity="0" stroke-width="4" stroke="#ffffff00"></path><path d="M669.2 947.58H669.3C681.91 958.81 698.02 966.34 708.94 979.9 710.21 981.49 711.8 984.67 713.07 987.32 713.49 988.17 712.01 989.02 711.27 989.76 710.74 990.18 710.1 990.5 709.47 990.5L640.58 990.39C640.48 990.39 640.48 990.29 640.48 990.29 643.13 973.23 653.94 955.53 669.2 947.58Z" fill="#ff925c" opacity="1" stroke-width="4" stroke="#000000"></path><path d="M426.63 470.29C411.12 470.29 398.55 457.72 398.55 442.21 398.55 426.7 411.12 414.12 426.63 414.12 442.13 414.12 454.71 426.7 454.71 442.21 454.71 457.72 442.13 470.29 426.63 470.29Z" fill="#010005" opacity="1" stroke-width="4" stroke="#000000"></path><path d="M353.51 434.26L393.35 439.66 418.15 434.36C418.26 434.36 418.26 434.26 418.26 434.26L416.88 425.99C416.88 425.89 416.99 425.89 416.99 425.89 427.37 429.07 443.69 428.54 450.68 418.79 457.36 409.46 457.36 398.76 451.11 379.26V379.15C451.53 378.62 456.41 372.16 455.56 368.45 454.71 365.06 446.66 364.11 445.92 364 445.92 364 445.81 364 445.81 363.89 437.86 340.26 433.09 324.37 413.7 316.84 393.25 308.79 367.39 312.39 351.39 326.59 335.39 340.79 341.11 368.87 343.87 383.18 345.24 391.13 350.01 416.99 353.51 434.26 353.4 434.26 353.4 434.26 353.51 434.26Z" fill="#cf5934" opacity="1" stroke-width="4" stroke="#000000"></path><path d="M309.64 466.05C328.61 449.41 353.4 445.17 355.1 444.86 355.2 444.86 355.2 444.75 355.2 444.75 355.1 443.9 354.04 437.54 353.51 434.36 353.51 434.26 353.51 434.26 353.62 434.26H397.06 418.15C418.15 434.26 418.26 434.26 418.26 434.36L420.27 446.13C420.38 446.66 420.69 446.98 421.22 447.08 427.27 448.03 465.63 455.88 490.95 509.39 495.72 519.67 499.43 528.47 502.82 535.88V535.99L442 608.9C442 608.9 442 608.9 442 609L439.88 629.03C439.88 629.14 439.88 629.14 439.77 629.14L327.86 625.96H327.76L273.61 558.35V558.24C273.71 555.7 277.42 486.93 309.64 466.05Z" fill="#ffffff" opacity="1" stroke-width="4" stroke="#000000"></path><path d="M344.82 531.75C344.82 531.65 344.93 531.65 344.93 531.65 363.79 531.86 353.93 581.56 382.65 608.9 411.16 636.13 387 629.14 386.57 629.03L327.65 625.85C327.55 625.85 327.55 625.75 327.55 625.75L340.26 583.47 344.82 531.75Z" fill="#ffffff00" opacity="0" stroke-width="4" stroke="#ffffff00"></path><path d="M400.24 419.21L418.36 440.09C418.68 440.4 419.21 440.3 419.21 439.77L418.26 434.26 416.88 425.78C416.46 425.68 405.96 421.12 400.77 418.36 400.35 418.26 399.92 418.89 400.24 419.21Z" fill="#cf593400" opacity="0" stroke-width="4" stroke="#ffffff00"></path><path d="M433.73 369.93C432.09 369.93 430.76 368.61 430.76 366.97 430.76 365.32 432.09 364 433.73 364 435.36 364 436.7 365.32 436.7 366.97 436.7 368.61 435.36 369.93 433.73 369.93Z" fill="#010005" opacity="1" stroke-width="4" stroke="#000000"></path><path d="M351.28 326.17C374.6 305.08 423.24 306.67 436.59 338.78V338.88C435.64 339.52 424.19 346.09 406.07 342.17 405.96 342.17 405.96 342.28 405.96 342.28 415.08 364.74 400.45 372.37 399.61 372.8H399.5C398.34 372.27 371.52 360.29 364.53 374.91 354.15 396.74 385.41 407.34 386.78 407.77 386.78 407.77 386.78 407.77 386.89 407.87 387.63 409.89 412.64 481.2 362.52 502.19 333.8 511.83 308.05 504.09 291.2 488.62 291.2 488.62 291.09 488.62 290.99 488.62 286.75 496.57 283.57 505.15 281.03 513.84L280.92 513.95C249.23 510.66 245 469.55 272.44 459.9L272.55 459.8C270.43 450.26 268.41 432.35 278.91 416.46 297.34 388.48 341.32 403.21 344.29 404.16 344.4 404.16 344.4 404.16 344.4 404.06 340.26 378.94 330.2 348.1 351.28 326.17Z" fill="#010005" opacity="1" stroke-width="4" stroke="#000000"></path><path d="M554.96 948.22C555.07 948.22 555.17 948.22 555.38 948.22 578.8 948.22 599.04 964.54 604.02 987.43H564.71C561.95 977.68 558.56 964.54 554.96 948.22Z" fill="#ff925c" opacity="1" stroke-width="4" stroke="#000000"></path><path d="M517.34 771.35L571.49 856.98C571.49 856.98 571.49 856.98 571.49 857.08 569.69 878.59 568.31 899.05 568.84 916.43 568.95 922.47 569.48 928.51 570.22 934.44 571.07 940.16 573.93 945.46 578.06 949.6 578.06 949.6 578.06 949.7 578.06 949.81 564.6 958.07 555.38 971.95 553.05 987.64 553.05 987.64 553.05 987.74 552.95 987.74L499.75 990.5C499.75 990.5 499.64 990.5 499.64 990.39 494.98 969.09 483.32 959.87 469.55 948.96 469.55 948.96 469.55 948.96 469.55 948.85 468.17 938.89 466.9 927.87 465.73 916.53 464.78 907.63 464.04 898.41 463.51 888.98 462.87 877.64 462.45 867.04 462.24 857.19 462.24 857.19 462.24 857.19 462.24 857.08L517.23 771.35C517.23 771.35 517.23 771.35 517.34 771.35Z" fill="#cf5934" opacity="1" stroke-width="4" stroke="#000000"></path><path d="M304.37 337.81C287.89 326.66 282.13 306.4 291.48 292.61 300.84 278.8 321.78 276.65 338.26 287.82 354.73 298.98 360.49 319.22 351.14 333.02 341.78 346.83 320.84 348.98 304.37 337.81Z" fill="#010005" opacity="1" stroke-width="4" stroke="#000000"></path><path d="M577.96 949.6H578.06C588.76 960.72 607.52 967.29 617.8 979.9 619.6 982.13 622.04 987.43 623.21 990.18 623.21 990.29 623.21 990.29 623.1 990.29H552.2C552.1 990.29 552.1 990.29 552.1 990.18 552.2 973.33 564.39 957.75 577.96 949.6Z" fill="#ff925c" opacity="1" stroke-width="4" stroke="#000000"></path><path d="M469.44 948.32C491.17 950.23 510.13 968.99 514.8 990.29 514.8 990.39 514.8 990.39 514.69 990.39H476.44C476.44 990.39 476.33 990.39 476.33 990.29 474.42 980.22 471.45 963.8 469.23 948.43 469.34 948.43 469.44 948.32 469.44 948.32Z" fill="#ff925c" opacity="1" stroke-width="4" stroke="#000000"></path><path d="M310.7 646.09H457.89C458.1 646.09 563.86 653.51 605.19 694.84 639.52 729.18 637.51 804.1 642.17 864.29 642.17 864.39 642.17 864.39 642.07 864.39H525.92C525.92 864.39 525.82 864.39 525.82 864.29L515.33 801.13C515.33 801.02 515.22 801.02 515.11 801.13 505.79 819.89 493.6 862.38 493.07 864.39 493.07 864.39 493.07 864.5 492.97 864.5H462.45C462.34 864.5 462.34 864.5 462.34 864.39 460.75 810.35 465.41 774.32 465.73 771.99 465.73 771.88 465.73 771.88 465.63 771.88H372.27C372.27 771.88 325.64 773.37 310.8 735.32 296.07 698.13 309.96 648.21 310.7 646.09 310.59 646.09 310.59 646.09 310.7 646.09Z" fill="#ecddfe" opacity="1" stroke-width="4" stroke="#000000"></path><path d="M310.59 646.09H422.92C383.61 658.28 363.68 678.52 343.87 693.46 320.66 710.95 304.66 709.25 304.66 709.25 301.48 677.36 310.59 646.09 310.59 646.09Z" fill="#ecddfe00" opacity="0" stroke-width="4" stroke="#ffffff00"></path><path d="M465.41 771.78H416.88C416.77 771.78 416.77 771.56 416.88 771.56 441.89 764.89 452.91 739.35 471.35 739.24 471.45 739.24 471.45 739.35 471.45 739.35 467.75 758.42 465.73 770.61 465.41 771.78 465.52 771.78 465.52 771.78 465.41 771.78Z" fill="#ecddfe00" opacity="0" stroke-width="4" stroke="#ffffff00"></path><path d="M622.36 987.43C634.53 986.72 638.05 1007.19 625.11 1007.35 625.11 1007.46 625.11 1007.46 625.01 1007.46H480.25C480.25 1007.46 480.14 1007.46 480.14 1007.35 479.93 1006.61 478.13 999.19 475.8 987.43 475.8 987.32 475.8 987.32 475.91 987.32L622.36 987.43C622.36 987.32 622.36 987.32 622.36 987.43Z" fill="#1d0e07" stroke-linejoin="round" opacity="1" stroke-width="4" stroke="#000000"></path><path d="M716.14 1007.46H625.22C625.11 1007.46 625.11 1007.46 625.11 1007.35 625.22 1006.4 625.85 999.72 622.25 987.43 622.25 987.32 622.25 987.32 622.36 987.32H713.07C713.07 987.32 713.17 987.32 713.17 987.43 715.72 993.78 716.99 1000.67 716.25 1007.35 716.25 1007.46 716.25 1007.46 716.14 1007.46Z" fill="#1d0e07" opacity="1" stroke-width="4" stroke="#000000"></path><path d="M442 522.43C442 522.32 442 522.32 442 522.43 443.48 521.9 469.76 514.69 508.01 520.94 538.32 525.92 558.88 536.41 566.62 541.08 566.62 541.08 566.72 541.18 566.62 541.18L543.41 703.32C543.41 703.42 543.3 703.42 543.3 703.42 542.67 703 541.29 702.15 539.38 701.09 530.9 696.22 510.88 686.26 481.73 681.59 444.11 675.55 418.15 682.34 415.82 682.97 415.71 682.97 415.71 682.97 415.71 682.87L442 522.43Z" fill="#cecece" opacity="1" stroke-width="4" stroke="#000000"></path><path d="M484.6 660.68C464.78 657.5 452.67 630.23 457.56 599.77 462.45 569.32 482.48 547.21 502.3 550.39 522.12 553.57 534.23 580.84 529.34 611.29 524.45 641.75 504.42 663.86 484.6 660.68Z" fill="#ffffff" opacity="1" stroke-width="4" stroke="#000000"></path><path d="M566.72 541.08C583.57 529 602.33 519.67 622.04 513.31 655.42 502.72 675.24 507.17 676.61 507.48 676.72 507.48 676.72 507.59 676.72 507.59L666.65 573.4C665.38 573.61 660.3 574.78 655.84 578.17 645.99 585.69 653.51 592.26 653.51 592.26 640.16 602.01 649.17 609.32 649.17 609.32 641.01 619.28 648.96 622.46 648.96 622.46 646.09 628.72 649.8 634.23 657.75 631.26L651.71 671C651.71 671.1 651.61 671.1 651.61 671.1 650.02 670.68 630.2 666.44 597.03 676.93 579.02 682.76 546.48 701.73 543.73 703.32 543.62 703.32 543.52 703.32 543.62 703.21L566.72 541.08Z" fill="#ffffff" opacity="1" stroke-width="4" stroke="#000000"></path><path d="M276.79 626.07C284.2 645.14 302.33 653.62 325.53 653.62H418.79C433.09 653.62 445.28 670.57 453.76 670.57 460.96 670.57 454.5 657.12 447.08 649.7 446.76 649.38 447.19 648.74 447.61 649.06 456.73 653.83 481.84 665.7 486.61 655 486.71 654.78 486.82 654.68 487.03 654.78 489.15 655.1 500.91 656.69 497.42 644.5 497.31 644.29 497.42 644.08 497.63 643.98 498.9 643.34 503.25 640.16 498.37 632.42 488.83 617.59 464.46 599.57 433.73 594.27 404.48 589.19 346.3 584.21 340.9 583.68 340.69 583.68 340.47 583.47 340.47 583.25L342.49 558.67C342.49 558.46 342.28 558.24 342.06 558.24H273.71C273.61 558.24 273.61 558.24 273.61 558.35 273.4 560.68 270.43 609.64 276.79 626.07Z" fill="#cf5934" opacity="1" stroke-width="4" stroke="#000000"></path><path d="M435 388.27C436.8 391.87 442.1 392.4 444.75 391.45" stroke="#000000" stroke-width="4" stroke-linecap="round" stroke-linejoin="round" opacity="1" fill="none"></path><path d="M400.77 418.36C400.77 418.36 412.22 423.77 416.67 425.57" stroke="#000000" stroke-width="4" stroke-linecap="round" stroke-linejoin="round" opacity="1" fill="none"></path><path d="M386.89 386.15L395.79 391.55" stroke="#000000" stroke-width="4" stroke-linecap="round" stroke-linejoin="round" opacity="1" fill="none"></path><path d="M571.39 864.61C569.58 886.12 568.31 898.94 568.84 916.32 568.95 922.36 569.48 928.4 570.22 934.34 571.07 940.06 573.82 945.36 578.06 949.49 588.66 960.62 607.42 967.19 617.8 979.9 619.6 982.13 621.09 984.67 622.25 987.32" stroke="#000000" stroke-width="4" stroke-linecap="round" stroke-linejoin="round" opacity="1" fill="none"></path><path d="M465.52 771.67L471.35 739.67" stroke="#000000" stroke-width="4" stroke-linecap="round" stroke-linejoin="round" opacity="1" fill="none"></path><path d="M660.93 629.77C650.76 635.6 645.78 629.46 648.96 622.46 648.96 622.46 641.01 619.28 649.17 609.32 649.17 609.32 640.16 602.01 653.51 592.26 653.51 592.26 645.99 585.69 655.84 578.17 661.04 574.25 666.97 573.29 666.97 573.29" stroke="#000000" stroke-width="4" stroke-linecap="round" stroke-linejoin="round" opacity="1" fill="none"></path><path d="M680.22 582.3C675.34 589.29 661.35 592.79 653.51 592.26" stroke="#000000" stroke-width="4" stroke-linecap="round" stroke-linejoin="round" opacity="1" fill="none"></path><path d="M676.51 599.89C670.68 605.08 660.93 610.81 649.06 609.32" stroke="#000000" stroke-width="4" stroke-linecap="round" stroke-linejoin="round" opacity="1" fill="none"></path><path d="M669.09 617.59C666.12 620.77 654.36 624.58 648.85 622.46" stroke="#000000" stroke-width="4" stroke-linecap="round" stroke-linejoin="round" opacity="1" fill="none"></path><path d="M340.26 583.57C344.18 583.89 367.6 586.22 367.6 586.22" stroke="#000000" stroke-width="4" stroke-linecap="round" stroke-linejoin="round" opacity="1" fill="none"></path><path d="M486.5 654.57C461.07 636.56 447.19 629.99 438.82 626.38" stroke="#000000" stroke-width="4" stroke-linecap="round" stroke-linejoin="round" opacity="1" fill="none"></path><path d="M497.1 643.98C489.68 636.56 466.37 620.66 446.55 611.97" stroke="#000000" stroke-width="4" stroke-linecap="round" stroke-linejoin="round" opacity="1" fill="none"></path><path d="M344.5 531.65C343.76 540.97 340.26 583.57 340.26 583.57" stroke="#000000" stroke-width="4" stroke-linecap="round" stroke-linejoin="round" opacity="1" fill="none"></path><path d="M566.83 540.02L543.52 703.42" stroke="#000000" stroke-width="4" stroke-linecap="round" stroke-linejoin="round" opacity="1" fill="none"></path></g><g><path d="M804.61 577.38V619.47" stroke="#000000" stroke-width="4" stroke-linecap="round" stroke-linejoin="round" opacity="1" fill="none"></path><path d="M845.76 569.77C794.28 591 735.28 566.39 714.05 514.9 692.81 463.42 717.43 404.42 768.91 383.19L845.76 569.77Z" stroke="#000000" stroke-width="4" stroke-linecap="round" stroke-linejoin="round" opacity="1" fill="none"></path><path d="M845.76 569.77C794.28 591 735.28 566.39 714.05 514.9 692.81 463.42 717.43 404.42 768.91 383.19L845.76 569.77Z" fill="#ff925c00" opacity="0" stroke-width="4" stroke="#ffffff00"></path><path d="M807.9 391.27C814.29 391.27 820.77 392.02 826.69 393.33 837.31 395.68 853.56 409.68 853.56 409.68 853.56 409.68 872.82 419.92 879.11 429.32 888.23 442.94 893.58 459.38 893.58 476.95 893.58 524.3 855.25 562.63 807.9 562.63 762.9 562.63 725.88 527.59 722.41 483.43 722.22 481.18 722.22 479.3 722.22 476.95 722.22 470.94 729.27 461.35 729.27 461.35 729.27 461.35 727.39 446.88 730.11 440.97 743.73 411.75 773.52 391.27 807.9 391.27Z" fill="#ff925c" opacity="1" stroke-width="4" stroke="#000000"></path><path d="M750.59 502.03C757.73 533.13 767.5 515.28 775.96 525.52 789.58 541.96 802.64 549.29 812.79 547.79 822.93 546.28 805.08 534.26 805.08 514.9 805.08 495.55 799.45 483.15 784.79 480.99 770.13 478.83 765.72 494.42 756.7 489.73 750.03 486.16 768.72 466.99 770.23 450.08 772.58 424.81 731.71 440.5 730.11 440.97 730.11 440.97 730.02 440.97 730.02 441.06 723.91 454.31 721.19 468.87 722.31 483.43 722.31 483.43 722.31 483.43 722.31 483.52 736.31 501.38 746.93 486.06 750.59 502.03Z" fill="#ffdf61" opacity="1" stroke-width="4" stroke="#000000"></path><path d="M826.69 393.33C824.34 394.27 822.37 395.49 820.4 396.9 801.61 409.87 794.47 438.43 805.08 443.22 815.6 448.01 828.85 430.07 837.87 426.97 853.47 421.71 851.12 435.8 842.38 440.12 833.64 444.44 819.08 444.54 816.17 456.19 813.16 468.21 825.28 471.31 838.72 473 852.15 474.69 853.47 519.79 864.08 515.84 874.7 511.9 885.41 483.9 876.86 450.08 873.95 438.62 875.83 432.7 879.02 429.41V429.32C866.81 411.09 848.11 398.22 826.69 393.33Z" fill="#ffdf61" opacity="1" stroke-width="4" stroke="#000000"></path><path d="M785.17 610.73H825C834.86 610.73 842.85 618.72 842.85 628.58V629.15H767.31V628.58C767.31 618.72 775.3 610.73 785.17 610.73Z" fill="#cabab2" opacity="1" stroke-width="4" stroke="#000000"></path></g><g><path d="M645.77 541.31L634.25 496.68H590.39L578.91 541.31C574.3 559.28 584.62 576.82 600.97 582.5 605.39 584.08 608.36 588.27 608.32 592.98V613.14C608.32 616.23 606.39 619.01 603.49 620.1 596.91 622.55 589.75 626.1 589.75 628.58H634.9C634.9 626.07 627.74 622.55 621.16 620.1 618.26 619.04 616.32 616.23 616.32 613.14V592.98C616.29 588.27 619.26 584.08 623.71 582.5 640.06 576.82 650.38 559.28 645.77 541.31Z" fill="#ff925c" opacity="1" stroke-width="4" stroke="#000000"></path><path d="M612.35 577.76C594.1 577.76 580.72 560.5 585.26 542.83H639.45C643.99 560.5 630.64 577.76 612.35 577.76Z" fill="#ffdf61" opacity="1" stroke-width="4" stroke="#000000"></path><path d="M639.19 542.86C639.45 542.83 631.87 553.86 612.32 553.86 592.78 553.86 585.23 542.83 585.8 542.84H638.86Z" fill="#feea9b" opacity="1" stroke-width="4" stroke="#000000"></path><path d="M630.71 549.76C630.77 560.79 625.51 570.95 617.1 577.37 632.87 574.69 643.57 558.96 639.45 542.86 639.12 543.25 636.45 546.8 630.71 549.76Z" fill="#ffdf6100" opacity="0" stroke-width="4" stroke="#ffffff00"></path><path d="M634.25 496.68C634.25 496.68 628.13 507.64 612.32 507.64 596.52 507.64 590.39 496.68 590.39 496.68H634.25Z" fill="#ff925c00" opacity="0" stroke-width="4" stroke="#ffffff00"></path><path d="M608.32 592.98V613.14C608.32 614.43 608.01 615.65 607.4 616.71 612.98 618.81 617.48 623.13 619.8 628.58H634.9C634.9 626.07 627.77 622.55 621.19 620.1 618.29 619.04 616.35 616.23 616.35 613.14V592.98C616.32 588.88 618.49 585.21 622 583.27 619.29 584.21 616.13 584.85 612.35 584.85 608.61 584.85 605.42 584.24 602.71 583.3 606.16 585.24 608.32 588.92 608.32 592.98Z" fill="#ff925c00" opacity="0" stroke-width="4" stroke="#ffffff00"></path><path d="M634.25 497.32C634.25 497.32 628.13 508.29 612.32 508.29 596.52 508.29 590.39 497.32 590.39 497.32" stroke="#000000" stroke-width="4" stroke-linecap="round" stroke-linejoin="round" opacity="1" fill="none"></path></g><g><path d="M1147.52 651.58H452.39C446.03 651.58 440.79 646.43 440.79 639.98 440.79 633.62 445.93 628.38 452.39 628.38H1147.52C1153.88 628.38 1159.12 633.52 1159.12 639.98 1159.12 646.34 1153.97 651.58 1147.52 651.58Z" fill="#ffdf61" opacity="1" stroke-width="4" stroke="#000000"></path></g><g><path d="M1022.33 567.75C998.33 563.81 952.39 555.39 936.72 554.22 920.84 549.63 911.78 565.41 930.11 571.81 934.69 573.83 916.89 575.86 925.85 591.21 925.1 592.27 919.77 600.59 929.15 609.11 927.13 614.87 927.77 621.9 936.29 627.13 935.33 630.01 938.21 637.57 947.91 641.41 954.52 644.4 960.28 639.6 957.08 632.56 960.06 631.07 961.02 628.3 960.28 625.21 973.49 630.33 992.26 636.83 1011.03 642.05 1011.35 642.26 1022.86 567.43 1022.33 567.75Z" fill="#e59763" opacity="1" stroke-width="4" stroke="#000000"></path><path d="M930.87 572.66L943.45 575.75" stroke="#000000" stroke-width="4" stroke-linecap="round" stroke-linejoin="round" opacity="1" fill="none"></path><path d="M968.5 961.62L1035.12 958.1 1039.91 950.22C1043.32 934.23 1047.06 914.72 1050.25 892.44H948.24C946.86 902.36 944.3 912.48 940.99 921.97V922.08L968.5 961.62Z" fill="#e59763" opacity="1" stroke-width="4" stroke="#000000"></path><path d="M1197.25 639.17H1148.53C1148.53 639.17 1031.49 646.74 989.28 689.06 957.41 720.93 956.24 787.13 952.83 845.11 951.76 862.06 950.48 878.26 948.24 892.76H1050.36C1050.57 890.95 1050.89 889.14 1051.11 887.33 1053.02 872.51 1054.52 858.22 1055.58 845.11 1058.78 803.12 1057.61 772.52 1057.61 772.52L1134.78 770.82C1134.78 770.82 1182.32 769.22 1197.57 730.31 1212.38 691.4 1197.25 639.17 1197.25 639.17Z" fill="#ffffff" opacity="1" stroke-width="4" stroke="#000000"></path><path d="M983.74 950.22L986.08 934.55C986.94 928.58 982.89 922.93 976.81 922.08 976.28 921.97 975.74 921.97 975.1 921.97H941.21C940.99 921.97 940.89 922.08 940.78 922.29 938.97 927.19 936.52 931.78 933.75 936.15 920.74 955.12 897.4 962.69 882.79 980.6 880.13 983.58 877.89 988.7 877.14 991.89 877.14 992 877.14 992 877.25 992H1030.53C1030.53 992 1030.64 992 1030.64 991.89 1033.3 982.41 1036.4 966.1 1039.91 950.32 1039.91 950.22 1039.91 950.22 1039.81 950.22H983.74Z" fill="#ecddfe" opacity="1" stroke-width="4" stroke="#000000"></path><path d="M878.32 988.27C875.76 994.77 874.8 1001.7 875.65 1008.63 875.65 1008.74 875.65 1008.74 875.76 1008.74H1023.92C1023.92 1008.74 1026.59 1001.81 1030.64 988.16L878.32 988.27C878.42 988.16 878.32 988.16 878.32 988.27Z" fill="#6934a9" opacity="1" stroke-width="4" stroke="#000000"></path><path d="M1039.06 717.2C981.61 717.2 997.6 800.66 1001.01 892.76 1003.35 954.48 968.5 945.85 942.49 980.49 940.67 982.94 939.18 985.39 937.9 988.06 935.34 994.56 934.28 1001.59 935.13 1008.63H1012.95C1012.95 1008.63 1015.61 1001.7 1019.66 988.06 1022.33 978.57 1025.74 965.99 1029.25 950.11 1032.67 934.12 1036.29 915.04 1039.49 892.65 1039.7 890.84 1040.02 889.03 1040.23 887.22 1042.15 872.4 1043.64 858.12 1044.71 845.01 1047.91 803.01 1046.74 772.42 1046.74 772.42 1046.74 772.42 1124.98 717.2 1039.06 717.2Z" fill="#ffffff00" opacity="0" stroke-width="4" stroke="#ffffff00"></path><path d="M1052.92 963.65L1125.08 959.7 1127.75 950.64C1130.31 933.59 1132.65 913.33 1134.04 892.76L1068.05 879.86 1026.06 892.23C1026.48 902.67 1026.48 913.23 1025.95 922.08 1025.95 921.97 1053.02 963.01 1052.92 963.65Z" fill="#e59763" opacity="1" stroke-width="4" stroke="#000000"></path><path d="M1070.4 950.22L1072.74 934.55C1073.6 928.58 1069.55 922.93 1063.47 922.08 1062.94 921.97 1062.41 921.97 1061.77 921.97H1026.16C1026.06 921.97 1026.06 921.97 1026.06 922.08 1025.84 926.34 1025.42 930.28 1024.88 934.01 1021.58 957.04 987.36 963.65 974.57 982.51 972.33 984.75 971.05 989.23 970.31 991.89 970.31 992 970.31 992 970.41 992L1121.35 988.16C1121.35 988.16 1121.46 988.16 1121.46 988.06 1123.7 978.36 1125.62 965.78 1127.75 950.75 1127.75 950.64 1127.75 950.64 1127.64 950.64L1070.4 950.22Z" fill="#ecddfe" opacity="1" stroke-width="4" stroke="#000000"></path><path d="M1290.41 639.17H1172.2C1172.2 639.17 1079.14 647.81 1037.89 689.06 1011.24 715.71 1017.53 783.18 1022.75 845.11 1024.14 861.74 1025.52 877.84 1026.06 892.76H1134.04C1134.14 890.95 1134.25 889.14 1134.36 887.33 1135.42 871.76 1135.64 857.69 1135.74 845.11 1136.06 800.34 1132.22 773.7 1131.9 771.67 1131.9 771.56 1131.9 771.56 1132.01 771.56H1227.52C1227.52 771.56 1275.17 769.22 1290.41 730.31 1305.65 691.4 1290.41 639.17 1290.41 639.17Z" fill="#ffffff" opacity="1" stroke-width="4" stroke="#000000"></path><path d="M1296.27 671.26C1296.27 671.15 1296.27 671.15 1296.17 671.15H1258.22V671.47C1258.22 671.9 1253.96 723.81 1287.85 735.96H1287.96C1288.92 734.15 1289.77 732.44 1290.52 730.52 1297.87 711.23 1298.09 689.06 1296.27 671.26Z" fill="#ecddfe" opacity="1" stroke-width="4" stroke="#000000"></path><path d="M1290.41 639.17H1184.14C1184.14 639.17 1149.07 685.12 1165.27 683.52 1176.14 682.45 1195.01 660.81 1203.64 660.81 1230.4 658.25 1254.7 702.38 1296.7 702.38 1299.47 670.3 1290.41 639.17 1290.41 639.17Z" fill="#ffffff00" opacity="0" stroke-width="4" stroke="#ffffff00"></path><path d="M1080.85 661.77C1064.64 668.7 1049.29 677.55 1037.89 688.95 1011.24 715.6 1017.53 783.08 1022.75 845.01 1024.14 861.64 1025.42 877.73 1026.06 892.65 1026.48 903.1 1026.48 912.91 1025.95 921.86 1025.74 926.13 1025.31 930.18 1024.78 933.91 1021.58 956.61 990.56 962.58 976.06 980.49 974.25 982.83 972.76 985.39 971.48 988.06" stroke="#000000" stroke-width="4" stroke-linecap="round" stroke-linejoin="round" opacity="1" fill="none"></path><path d="M971.59 988.16C969.03 994.67 967.96 1001.7 968.82 1008.74H1116.98C1116.98 1008.74 1117.09 1008.74 1117.09 1008.63 1117.3 1007.78 1119.01 1000.32 1121.46 988.16H971.59Z" fill="#6934a9" opacity="1" stroke-width="4" stroke="#000000"></path><path d="M1014.76 951.39L1025.95 958.1" stroke="#000000" stroke-width="4" stroke-linecap="round" stroke-linejoin="round" opacity="1" fill="none"></path><path d="M1003.67 959.6L1014.01 969.08" stroke="#000000" stroke-width="4" stroke-linecap="round" stroke-linejoin="round" opacity="1" fill="none"></path><path d="M1061.87 653.67C1043.01 650.79 1025.52 646 1011.03 642.05L1010.92 641.94C1011.35 639.17 1022.33 567.86 1022.33 567.86 1056.33 572.98 1079.57 577.24 1082.76 577.77 1083.83 574.47 1094.7 544.84 1110.48 506.57 1129.03 461.8 1149.28 450.82 1175.5 444.74 1175.5 444.74 1175.5 444.64 1175.61 444.64L1177.21 434.51 1239.99 432.7 1243.08 434.51C1242.55 437.71 1242.34 441.55 1242.12 442.51 1251.93 444.32 1260.67 447.52 1269.52 451.99 1297.02 466.17 1313.97 491.86 1328.25 556.67 1338.81 608.69 1330.7 652.82 1282.2 652.92L1211.64 652.5C1211.53 652.6 1199.27 640.56 1199.27 640.56L1148.64 639.17C1102.48 644.29 1098.97 645.04 1061.87 653.67Z" fill="#ecddfe" opacity="1" stroke-width="4" stroke="#000000"></path><path d="M1132.12 771.56C1134.57 771.56 1175.82 771.56 1181.79 771.56 1181.9 771.56 1181.9 771.35 1181.79 771.35 1158.87 764.63 1144.8 738.41 1125.94 738.31 1125.83 738.31 1125.83 738.41 1125.83 738.41 1129.77 757.81 1131.8 770.39 1132.12 771.56 1132.01 771.56 1132.01 771.56 1132.12 771.56Z" fill="#ffffff00" opacity="0" stroke-width="4" stroke="#ffffff00"></path><path d="M1132.01 771.56C1130.52 762.93 1125.83 738.31 1125.83 738.31" stroke="#000000" stroke-width="4" stroke-linecap="round" stroke-linejoin="round" opacity="1" fill="none"></path><path d="M1177.21 434.4L1178.81 423.96C1178.81 423.85 1178.7 423.85 1178.7 423.85 1168.36 428.01 1150.24 424.92 1145.02 416.5 1138.41 407.22 1138.19 396.35 1144.48 376.52V376.42C1138.51 368.1 1136.7 362.45 1149.92 360.96 1149.92 360.96 1150.03 360.96 1150.03 360.85 1153.33 351.15 1155.68 343.37 1158.87 337.08 1163.03 328.77 1168.68 323.12 1179.77 319.07 1199.81 310.86 1227.41 314.81 1242.76 328.98 1260.24 345.19 1255.34 367.57 1252.36 384.94 1250.44 395.92 1243.62 432.38 1243.3 434.3 1243.3 434.3 1243.3 434.4 1243.19 434.4H1177.53C1177.31 434.51 1177.21 434.4 1177.21 434.4Z" fill="#e59763" opacity="1" stroke-width="4" stroke="#000000"></path><path d="M1243.3 415.75C1238.5 415.75 1226.77 414.79 1220.91 406.8 1220.8 406.58 1220.8 406.37 1221.02 406.16 1227.09 401.57 1246.81 382.92 1232.96 368.96 1223.04 357.23 1200.02 372.05 1197.57 374.39 1197.57 374.39 1197.57 374.39 1197.46 374.39 1196.5 374.07 1186.27 363.63 1189.79 343.27 1190.11 341.45 1188.51 339.96 1186.69 340.39 1175.82 343.48 1162.28 342.31 1158.55 337.3V337.19C1172.2 302.87 1221.12 302.12 1245.11 323.23 1260.88 337.3 1257.15 358.51 1253.42 378.76 1253.42 378.76 1248.84 404.13 1246.49 415.64 1246.49 415.64 1246.49 415.75 1246.39 415.75 1246.17 415.75 1245.21 415.75 1243.3 415.75Z" fill="#010005" opacity="1" stroke-width="4" stroke="#000000"></path><path d="M1160.79 385.69C1158.98 389.32 1153.65 389.85 1150.99 388.89" stroke="#000000" stroke-width="4" stroke-linecap="round" stroke-linejoin="round" opacity="1" fill="none"></path><path d="M1162.07 367.46C1163.84 367.46 1165.27 366.02 1165.27 364.27 1165.27 362.5 1163.84 361.07 1162.07 361.07 1160.3 361.07 1158.87 362.5 1158.87 364.27 1158.87 366.02 1160.3 367.46 1162.07 367.46Z" fill="#010005" opacity="1" stroke-width="4" stroke="#000000"></path><path d="M1208.55 391.34L1217.07 383.88" stroke="#000000" stroke-width="4" stroke-linecap="round" stroke-linejoin="round" opacity="1" fill="none"></path><path d="M1242.12 442.51H1229.87" stroke="#000000" stroke-width="4" stroke-linecap="round" stroke-linejoin="round" opacity="1" fill="none"></path><path d="M1224.11 584.81C1236.37 576.5 1241.27 560.29 1244.26 549.31 1246.71 531.73 1255.45 531.83 1256.3 531.94 1256.51 531.83 1263.98 581.72 1264.08 581.72 1251.61 582.57 1231.36 584.28 1224.22 585.02 1224.11 585.02 1224 584.81 1224.11 584.81Z" fill="#ecddfe00" opacity="0" stroke-width="4" stroke="#ffffff00"></path><path d="M1193.09 417.56C1186.05 421.08 1180.19 423.21 1179.02 423.64 1178.91 423.64 1178.81 423.85 1178.81 423.96L1177.21 434.51 1176.57 438.67C1176.46 439.09 1176.89 439.2 1177.21 438.99L1193.62 418.2C1193.84 417.88 1193.52 417.35 1193.09 417.56Z" fill="#e5976300" opacity="0" stroke-width="4" stroke="#ffffff00"></path><path d="M921.16 949.79L933.1 958.1" stroke="#000000" stroke-width="4" stroke-linecap="round" stroke-linejoin="round" opacity="1" fill="none"></path><path d="M910.08 958.96L921.17 969.08" stroke="#000000" stroke-width="4" stroke-linecap="round" stroke-linejoin="round" opacity="1" fill="none"></path><path d="M1038.74 543.13C1067.42 524.9 1126.36 513.71 1164.1 523.84 1164.2 523.84 1164.31 523.94 1164.31 524.16 1165.06 531.73 1191.49 687.35 1190.43 685.75 1190.32 685.65 1175.72 681.7 1154.61 681.81 1124.44 680.85 1076.69 694.28 1062.41 706.97 1062.3 706.97 1062.3 706.97 1062.19 706.97 1060.06 701.21 1039.06 544.41 1038.74 543.13Z" fill="#ff925c" opacity="1" stroke-width="4" stroke="#000000"></path><path d="M1065.82 567.65C1083.3 556.24 1122.31 548.89 1145.44 555.71 1145.76 555.5 1162.18 658.25 1162.28 658.25H1162.18C1161.86 658.15 1161.96 658.25 1161.96 658.15 1161.96 658.15 1152.58 655.59 1139.37 655.7 1119.54 655.38 1095.66 661.88 1080.63 671.36 1080.31 669.34 1065.82 567.65 1065.82 567.65Z" fill="#ffffff" opacity="1" stroke-width="4" stroke="#000000"></path><path d="M1256.41 531.94L1264.08 581.72" stroke="#000000" stroke-width="4" stroke-linecap="round" stroke-linejoin="round" opacity="1" fill="none"></path><path d="M1113.14 695.35C1110.05 695.35 1106.22 693.54 1105.58 684.69 1105.47 684.69 1105.26 684.69 1105.15 684.69 1090.01 683.2 1109.2 649.94 1115.81 640.13 1115.92 639.92 1115.7 639.81 1115.6 639.81 1113.25 639.39 1106.32 637.89 1104.94 634.06 1104.08 632.35 1105.36 629.26 1106.75 627.77 1122.74 609.43 1173.37 589.82 1206.84 586.84 1206.84 586.84 1206.95 586.84 1206.95 586.94 1207.59 589.39 1211.85 648.87 1211.96 652.5 1211.96 652.6 1211.96 652.6 1211.85 652.6 1209.93 652.6 1187.87 652.82 1187.65 652.82 1173.69 652.82 1165.59 685.01 1155.68 685.86 1148.85 685.12 1149.92 676.05 1150.99 670.3 1150.99 670.19 1150.88 670.09 1150.77 670.09 1150.45 670.09 1150.45 670.41 1150.35 670.51 1144.91 680 1132.86 700.36 1119.75 693.64 1118.69 693.64 1116.24 695.35 1113.14 695.35Z" fill="#e59763" opacity="1" stroke-width="4" stroke="#000000"></path><path d="M1206.95 586.84C1206.95 586.84 1223.58 583.85 1264.08 581.72" stroke="#000000" stroke-width="4" stroke-linecap="round" stroke-linejoin="round" opacity="1" fill="none"></path><path d="M1105.79 684.48C1115.81 662.09 1136.06 635.44 1136.06 635.44" stroke="#000000" stroke-width="4" stroke-linecap="round" stroke-linejoin="round" opacity="1" fill="none"></path><path d="M1119.65 693C1127.53 675.95 1148.85 642.9 1148.85 642.9" stroke="#000000" stroke-width="4" stroke-linecap="round" stroke-linejoin="round" opacity="1" fill="none"></path><path d="M1150.88 669.77L1159.51 654.84" stroke="#000000" stroke-width="4" stroke-linecap="round" stroke-linejoin="round" opacity="1" fill="none"></path><path d="M1038.74 543.13C1010.28 521.71 959.33 502.95 927.99 509.23 927.78 509.02 933.11 544.52 938.86 582.57 938.86 582.57 938.86 582.68 938.97 582.68 942.06 583.32 947.39 584.81 950.8 587.58 956.66 591.85 957.09 598.13 953.04 601.97 960.18 606.98 962.42 614.66 957.09 619.24 961.46 624.36 961.99 630.22 957.09 632.56 959.12 637.25 957.41 642.16 952.08 642.26 950.8 642.26 949.42 641.94 947.92 641.41 950.91 660.81 953.04 674.35 953.15 674.14 1006.66 667.21 1056.97 703.13 1061.87 706.75 1061.98 706.86 1062.09 706.75 1062.09 706.65 1061.13 697.05 1038.85 543.02 1038.74 543.13Z" fill="#ff925c" opacity="1" stroke-width="4" stroke="#000000"></path><path d="M950.8 587.58C956.66 591.85 957.09 598.13 953.04 601.97 960.18 606.98 962.42 614.66 957.09 619.24 961.46 624.36 961.99 630.22 957.09 632.56 959.12 637.25 957.41 642.16 952.08 642.26" stroke="#000000" stroke-width="4" stroke-linecap="round" stroke-linejoin="round" opacity="1" fill="none"></path><path d="M952.72 601.97C939.93 602.4 926.07 591.21 926.07 591.21" stroke="#000000" stroke-width="4" stroke-linecap="round" stroke-linejoin="round" opacity="1" fill="none"></path><path d="M956.77 619.24C947.39 620.52 929.38 609.11 929.38 609.11" stroke="#000000" stroke-width="4" stroke-linecap="round" stroke-linejoin="round" opacity="1" fill="none"></path><path d="M956.77 632.35C948.46 633.31 936.52 627.02 936.52 627.02" stroke="#000000" stroke-width="4" stroke-linecap="round" stroke-linejoin="round" opacity="1" fill="none"></path><path d="M1193.09 417.56C1193.09 417.56 1183.28 421.93 1178.81 423.75" stroke="#000000" stroke-width="4" stroke-linecap="round" stroke-linejoin="round" opacity="1" fill="none"></path><path d="M1038.74 543.13L1062.19 706.97" stroke="#000000" stroke-width="4" stroke-linecap="round" stroke-linejoin="round" opacity="1" fill="none"></path></g></svg>