<svg width="18" height="18" viewBox="0 0 18 18" fill="none" xmlns="http://www.w3.org/2000/svg">
<path d="M9 18L8.24757 17.2416C6.61641 15.593 5.27127 14.1727 4.21215 12.9806C3.15304 11.7885 2.31043 10.7309 1.68433 9.80782C1.05821 8.88468 0.620962 8.05165 0.372577 7.30872C0.124193 6.56578 0 5.81914 0 5.0688C0 3.62999 0.438159 2.42549 1.31448 1.45529C2.1908 0.485098 3.27389 0 4.56377 0C5.44555 0 6.26326 0.24608 7.01689 0.738241C7.77054 1.2304 8.43158 1.94579 9 2.88439C9.63886 1.9068 10.3248 1.18167 11.0578 0.709003C11.7908 0.236334 12.5836 0 13.4362 0C14.7261 0 15.8092 0.485098 16.6855 1.45529C17.5618 2.42549 18 3.62999 18 5.0688C18 5.81914 17.8758 6.56578 17.6274 7.30872C17.379 8.05165 16.9418 8.88468 16.3157 9.80782C15.6896 10.7309 14.847 11.7885 13.7878 12.9806C12.7287 14.1727 11.3836 15.593 9.75243 17.2416L9 18Z" fill="#F7F4EF"/>
</svg>
