<svg width="18" height="20" viewBox="0 0 18 20" fill="none" xmlns="http://www.w3.org/2000/svg">
<path d="M12.6605 7.2265L10.2282 4.63464L11.0489 3.7287L12.6605 5.45303L16.4529 1.36758L17.2996 2.27353L12.6605 7.2265ZM0.173096 19.8333V2.718C0.173096 2.2878 0.320548 1.91315 0.615454 1.59406C0.910342 1.27496 1.26216 1.11542 1.67089 1.11542H9.56512C9.2203 1.56129 8.96169 2.036 8.78929 2.53956C8.61687 3.04311 8.53066 3.58692 8.53066 4.17097C8.53066 5.41883 8.9111 6.49859 9.67198 7.41028C10.4329 8.32196 11.3738 8.85472 12.4948 9.00856C12.7158 9.03848 12.9122 9.05345 13.0839 9.05345C13.2557 9.05345 13.452 9.03848 13.673 9.00856V19.8333L6.92307 16.735L0.173096 19.8333Z" fill="#202020"/>
</svg>
