<svg width="18" height="20" viewBox="0 0 18 20" fill="none" xmlns="http://www.w3.org/2000/svg">
<g clip-path="url(#clip0_4_515)">
<path d="M0.062561 19.221V4.1124C0.062561 3.74298 0.216774 3.42417 0.525199 3.15598C0.833623 2.88778 1.20024 2.75369 1.62505 2.75369H13.375C13.8013 2.75369 14.1711 2.88778 14.4844 3.15598C14.7975 3.42417 14.9541 3.74298 14.9541 4.1124V19.221L7.50002 16.4746L0.062561 19.221ZM16.7083 16.9112V1.50371C16.7083 1.43123 16.6736 1.36481 16.6041 1.30442C16.5347 1.24402 16.4583 1.21382 16.375 1.21382H3.17506V0.14502H16.375C16.7998 0.14502 17.1664 0.279117 17.4748 0.547313C17.7832 0.815493 17.9375 1.13429 17.9375 1.50371V16.9112H16.7083Z" fill="#202020"/>
</g>
<defs>
<clipPath id="clip0_4_515">
<rect width="18" height="20" fill="white"/>
</clipPath>
</defs>
</svg>
