<svg width="18" height="20" viewBox="0 0 18 20" fill="none" xmlns="http://www.w3.org/2000/svg">
<g clip-path="url(#clip0_62_15)">
<path d="M0.062561 19.221V4.11237C0.062561 3.74295 0.216774 3.42414 0.525199 3.15595C0.833623 2.88775 1.20024 2.75366 1.62505 2.75366H13.375C13.8013 2.75366 14.1711 2.88775 14.4844 3.15595C14.7975 3.42414 14.9541 3.74295 14.9541 4.11237V19.221L7.50002 16.4746L0.062561 19.221ZM16.7083 16.9111V1.50368C16.7083 1.4312 16.6736 1.36478 16.6041 1.30439C16.5347 1.24399 16.4583 1.21379 16.375 1.21379H3.17506V0.144989H16.375C16.7998 0.144989 17.1664 0.279087 17.4748 0.547282C17.7832 0.815462 17.9375 1.13426 17.9375 1.50368V16.9111H16.7083Z" fill="#F7F4EF"/>
</g>
<defs>
<clipPath id="clip0_62_15">
<rect width="18" height="20" fill="white"/>
</clipPath>
</defs>
</svg>
