<svg width="21" height="21" viewBox="0 0 21 21" fill="none" xmlns="http://www.w3.org/2000/svg">
<path d="M19.3875 20.9724L11.9906 13.7053C11.4281 14.1842 10.7723 14.5572 10.023 14.8243C9.2738 15.0915 8.47654 15.225 7.63125 15.225C5.60321 15.225 3.88683 14.5342 2.4821 13.1526C1.07737 11.7711 0.375 10.104 0.375 8.15132C0.375 6.19869 1.07812 4.53158 2.48438 3.15001C3.89062 1.76843 5.59219 1.07764 7.58906 1.07764C9.58594 1.07764 11.2828 1.76843 12.6797 3.15001C14.0766 4.53158 14.775 6.20007 14.775 8.15547C14.775 8.94481 14.6437 9.7079 14.3812 10.4447C14.1187 11.1816 13.725 11.8724 13.2 12.5171L20.625 19.7566L19.3875 20.9724ZM7.60312 13.5671C9.12656 13.5671 10.4215 13.0375 11.4879 11.9783C12.5543 10.9191 13.0875 9.64343 13.0875 8.15132C13.0875 6.65922 12.5543 5.38356 11.4879 4.32435C10.4215 3.26514 9.12656 2.73553 7.60312 2.73553C6.06407 2.73553 4.75586 3.26514 3.67851 4.32435C2.60117 5.38356 2.0625 6.65922 2.0625 8.15132C2.0625 9.64343 2.60117 10.9191 3.67851 11.9783C4.75586 13.0375 6.06407 13.5671 7.60312 13.5671Z" fill="#202020"/>
</svg>
