<svg width="31" height="28" viewBox="0 0 31 28" fill="none" xmlns="http://www.w3.org/2000/svg">
<path d="M27.9622 27.3782L17.7108 17.9282C16.8972 18.5282 15.9615 19.0032 14.9039 19.3532C13.8462 19.7032 12.7207 19.8782 11.5274 19.8782C8.57132 19.8782 6.06949 18.9344 4.02192 17.0469C1.97435 15.1594 0.950562 12.8532 0.950562 10.1282C0.950562 7.40317 1.97435 5.09692 4.02192 3.20942C6.06949 1.32192 8.57132 0.378174 11.5274 0.378174C14.4835 0.378174 16.9853 1.32192 19.0329 3.20942C21.0805 5.09692 22.1043 7.40317 22.1043 10.1282C22.1043 11.2282 21.9144 12.2657 21.5347 13.2407C21.1551 14.2157 20.6398 15.0782 19.9889 15.8282L30.2403 25.2782L27.9622 27.3782ZM11.5274 16.8782C13.5614 16.8782 15.2903 16.2219 16.7141 14.9094C18.1379 13.5969 18.8498 12.0032 18.8498 10.1282C18.8498 8.25317 18.1379 6.65942 16.7141 5.34692C15.2903 4.03442 13.5614 3.37817 11.5274 3.37817C9.4934 3.37817 7.76449 4.03442 6.34069 5.34692C4.91688 6.65942 4.20498 8.25317 4.20498 10.1282C4.20498 12.0032 4.91688 13.5969 6.34069 14.9094C7.76449 16.2219 9.4934 16.8782 11.5274 16.8782Z" fill="#F7F4EF"/>
</svg>
