<svg width="26" height="26" viewBox="0 0 26 26" fill="none" xmlns="http://www.w3.org/2000/svg">
<g clip-path="url(#clip0_4_266)">
<path d="M4.94002 20.375C6.23836 19.5417 7.52668 18.9029 8.80499 18.4588C10.0833 18.0146 11.4817 17.7925 13 17.7925C14.5183 17.7925 15.92 18.0146 17.205 18.4588C18.49 18.9029 19.7817 19.5417 21.08 20.375C22.025 19.28 22.727 18.1242 23.1862 16.9075C23.6454 15.6908 23.875 14.3883 23.875 13C23.875 9.93334 22.8292 7.35417 20.7375 5.26249C18.6458 3.17083 16.0666 2.125 13 2.125C9.93334 2.125 7.35417 3.17083 5.26249 5.26249C3.17083 7.35417 2.125 9.93334 2.125 13C2.125 14.3883 2.35792 15.6908 2.82375 16.9075C3.28959 18.1242 3.99501 19.28 4.94002 20.375ZM12.9939 13.7375C11.8246 13.7375 10.8412 13.3367 10.0438 12.5352C9.24625 11.7337 8.8475 10.7483 8.8475 9.57895C8.8475 8.40966 9.24827 7.42626 10.0498 6.62876C10.8513 5.83127 11.8367 5.43253 13.006 5.43253C14.1753 5.43253 15.1587 5.83329 15.9562 6.6348C16.7537 7.43634 17.1525 8.42175 17.1525 9.59103C17.1525 10.7603 16.7517 11.7437 15.9502 12.5412C15.1487 13.3387 14.1633 13.7375 12.9939 13.7375ZM12.9868 25.35C11.277 25.35 9.66945 25.0275 8.16415 24.3824C6.65886 23.7374 5.34935 22.8537 4.23562 21.7312C3.12189 20.6087 2.24586 19.3 1.60754 17.8051C0.969196 16.3103 0.650024 14.7031 0.650024 12.9837C0.650024 11.2727 0.972533 9.66763 1.61755 8.16857C2.26254 6.66954 3.14628 5.36419 4.26877 4.25252C5.39128 3.14087 6.69996 2.26254 8.19483 1.61755C9.6897 0.972532 11.2968 0.650024 13.0162 0.650024C14.7273 0.650024 16.3324 0.972532 17.8314 1.61755C19.3304 2.26254 20.6358 3.14087 21.7475 4.25252C22.8591 5.36419 23.7374 6.67128 24.3824 8.17378C25.0275 9.67625 25.35 11.2821 25.35 12.9913C25.35 14.7089 25.0275 16.3143 24.3824 17.8076C23.7374 19.3008 22.8591 20.6087 21.7475 21.7312C20.6358 22.8537 19.3273 23.7374 17.822 24.3824C16.3167 25.0275 14.705 25.35 12.9868 25.35Z" fill="#202020"/>
</g>
<defs>
<clipPath id="clip0_4_266">
<rect width="26" height="26" fill="white"/>
</clipPath>
</defs>
</svg>
